# xmcd
#
# Track frame offsets: 
#        150
#        11145
#        20441
#        28669
#        44634
#        60250
#        68246
#        88783
#        102716
#
# Disc length: 1494 seconds
#
# Revision: 0
# Processed by: cddbd v1.5.2PL0 Copyright (c) Steve Scherf et al.
# Submitted via: ExactAudioCopyFreeDBPlugin 1.0
#
DISCID=7705d409
DTITLE=Kenny Rogers - Christmas Live! (Gaither Gospel Series) (2012)
DYEAR=2012
DGENRE=Christmas: Southern Gospel
TTITLE0=My Favorite Things
TTITLE1=Silent Night
TTITLE2=Let It Snow! Let It Snow! Let It Snow!
TTITLE3=Mary, Did You Know?
TTITLE4=Away in a Manger - O Holy Night
TTITLE5=O Come All Ye Faithful
TTITLE6=We Three Kings - Little Drummer Boy (Medley)
TTITLE7=The Chosen One - Joy to the World
TTITLE8='Til the Season Comes 'Round Again
EXTD=
EXTT0=
EXTT1=
EXTT2=
EXTT3=
EXTT4=
EXTT5=
EXTT6=
EXTT7=
EXTT8=
PLAYORDER=
